<svg height="135" viewBox="0 0 382 135" width="382" xmlns="http://www.w3.org/2000/svg" xmlns:xlink="http://www.w3.org/1999/xlink"><mask id="a" fill="#fff"><path d="m0 .171h74.829v74.855h-74.829z" fill="#fff" fill-rule="evenodd"/></mask><g fill="none" fill-rule="evenodd" transform="translate(58 31)"><path d="m265.581849 35.4395623-6.437789-1.3250259c-1.875864-.3725686-3.069718-1.8212057-3.069718-3.5188002 0-2.649618 1.70525-5.1339873 5.883515-5.1339873 2.771367 0 5.585164 1.5735495 8.143039 4.5128949l1.619943-4.6785773c-3.708852-1.2417509-7.247537-1.6559571-10.359686-1.6559571-6.821447 0-10.658484 3.643279-10.658484 8.1561739 0 2.9809829 2.08891 6.168852 6.607957 7.1208755l6.565973 1.4078671c2.301953.4966136 3.495807 2.2354118 3.495807 4.0158476 0 2.6084142-1.875864 5.837487-6.352481 5.837487-3.666422 0-6.523096-1.4074333-9.166279-4.5124612l-1.619943 4.6781437c3.708853 1.2426183 7.247537 1.655957 10.999266 1.655957 7.07737 0 11.767031-3.3535515 11.767031-8.5699463 0-3.7261202-1.961172-6.8727855-7.418151-7.9904914zm-25.366156 6.6654656c0 5.051146-3.197456 8.0321289-7.71695 8.0321289-5.286365 0-7.332844-3.8918026-7.332844-10.9714744v-2.4010943c0-7.2041504 2.046479-11.2612017 7.375721-11.2612017 4.519047 0 7.674073 2.9805491 7.674073 8.0316952zm5.499856-28.8565042-6.864324 1.9456844c.810195 1.4490709 1.364468 4.3884163 1.364468 6.3345344v5.0593868c-2.071937-1.9031795-4.994266-2.9480199-8.35653-2.9480199-8.356084 0-12.918008 4.7197812-12.918008 13.1244787v2.4010943c0 8.2385814 4.817846 12.8343176 13.557588 12.8343176 3.254625 0 6.10728-1.1380909 8.08855-3.2047843.177314.8127982.443508 1.6225603.864684 2.459647h5.542287c-.852625-1.6975945-1.278715-4.1403263-1.278715-6.6654656zm-31.389021 20.2453541c0-6.5414206-4.135388-9.8537684-10.274378-9.8537684-3.666869 0-7.077369 1.0352985-9.550384 3.395189-.127737-.869616-.340782-1.7392319-.682011-2.6500517h-5.798208c.852625 1.6975945 1.279161 4.1403263 1.279161 6.6658993v13.5382511c0 2.5251393-.426536 4.9678711-1.279161 6.6654656h8.057732c-.852625-1.6975945-1.278715-4.1403263-1.278715-6.6654656l.042431-11.0543155c0-4.8026224 2.813797-8.0316952 7.674072-8.0316952 4.476617 0 6.267175 2.9805491 6.267175 7.9904914l.04243 11.0955193c0 2.5251393-.426089 4.9678711-1.278714 6.6654656h8.057731c-.852625-1.6975945-1.279161-4.1403263-1.279161-6.6654656zm-31.778486-9.1086311h-6.821447c.810194 1.4490709 1.364468 4.38885 1.364468 6.3345344l-.042877 11.3852468c0 4.8026223-2.813797 8.0321289-7.716503 8.0321289-4.177819 0-6.224298-2.9809829-6.224298-8.0321289v-17.7197812h-6.310051c.468966 1.4490709.810195 4.38885.810195 6.3345344v11.3852468c0 6.5414206 4.604354 9.8949721 10.189518 9.8949721 3.781207 0 7.24843-1.1315851 9.574056-3.4333567.17508.8895673.453333 1.7730624.913814 2.6882194h5.542286c-.852625-1.6975945-1.279161-4.1403263-1.279161-6.6654656zm-31.003129-9.5219698c1.321592 0 2.941981 1.4902746 4.135388 4.1815301l2.217094-5.3408735c-1.70525-.4554098-3.282763-.7039335-4.774969-.7039335-5.499856 0-9.379323 3.1466653-9.379323 9.2738798v2.1113669h-3.666422v1.8216395h3.666422v18.3825109c0 2.5251393-.426536 4.9678711-1.279161 6.6654656h8.057732c-.852625-1.6975945-1.278715-4.1403263-1.278715-6.6654656v-18.3825109h4.732092v-1.8216395h-4.732092v-5.0507123c0-3.0226203 1.02324-4.4712575 2.301954-4.4712575zm-15.320007-1.6147532-6.863878 1.9456844c.810195 1.4490709 1.364468 4.3884163 1.364468 6.3345344v23.0606546c0 2.5251393-.426536 4.9678711-1.279161 6.6654656h8.057732c-.852625-1.6975945-1.279161-4.1403263-1.279161-6.6654656zm-12.595091 0-6.864325 1.9456844c.810195 1.4490709 1.364469 4.3884163 1.364469 6.3345344v23.0606546c0 2.5251393-.426536 4.9678711-1.279161 6.6654656h8.057731c-.852625-1.6975945-1.278714-4.1403263-1.278714-6.6654656zm-16.871169 28.6079805c0 3.1883028-1.321591 8.2806526-7.4605815 8.2806526-2.941981 0-5.1161974-2.2770494-5.1161974-6.2516932v-1.2005472c0-3.7261202 2.430138-5.9203283 5.7553313-5.9203283h6.8214476zm5.457426-8.7768325c-.042877-6.3757382-4.39131-9.4395623-10.743791-9.4395623-3.4958078 0-7.5887657.9108198-11.8947682 2.7324592l1.4493287 5.4649185c2.9844113-4.1815301 6.7361405-6.3757382 9.8487355-6.3757382 3.325194 0 5.883069 2.4843693 5.883069 7.6179228v1.8216395h-6.8214476c-7.2051066 0-11.9371984 2.8981416-11.9371984 7.7836052v1.2005472c0 5.134421 4.4766169 8.1145364 11.2980645 8.1145364 3.9929115 0 6.2318905-1.3913856 7.7705455-3.3830447.186247.8730857.474773 1.7396657.926767 2.6379074h5.542286c-.852625-1.6975945-1.279161-4.1403263-1.279161-6.6654656z" fill="#1a365d"/><path d="m74.8287794 37.598438c0 20.6704468-16.7510294 37.427203-37.4144118 37.427203-20.6633823 0-37.41441172-16.7567562-37.41441172-37.427203 0-20.6704467 16.75102942-37.42720301 37.41441172-37.42720301 20.6633824 0 37.4144118 16.75675631 37.4144118 37.42720301" fill="#d40031" mask="url(#a)"/><path d="m12 52h20.9445742l-10.4081747-18.7314824zm25.2575891 0h7.1559283v-28.0942759h-7.1559283zm15.5864826 0h7.1559283v-36h-7.1559283z" fill="#fefefe"/></g></svg>